<svg width="512" height="512" viewBox="0 0 512 512" xmlns="http://www.w3.org/2000/svg">
  <defs>
    <linearGradient id="topFace" x1="0" y1="0" x2="1" y2="1">
      <stop offset="0%" stop-color="#4eeadb"/>
      <stop offset="100%" stop-color="#2dd4bf"/>
    </linearGradient>
    <linearGradient id="leftFace" x1="0" y1="0" x2="0.5" y2="1">
      <stop offset="0%" stop-color="#1a9e8f"/>
      <stop offset="100%" stop-color="#147a6e"/>
    </linearGradient>
    <linearGradient id="rightFace" x1="0.5" y1="0" x2="0" y2="1">
      <stop offset="0%" stop-color="#2bc4b0"/>
      <stop offset="100%" stop-color="#20a898"/>
    </linearGradient>
  </defs>
  <rect width="512" height="512" rx="96" fill="#0d2d2a"/>
  <g transform="translate(256, 240)">
    <path d="M0,-120 L140,-50 L0,20 L-140,-50 Z" fill="url(#topFace)"/>
    <path d="M-140,-50 L0,20 L0,160 L-140,90 Z" fill="url(#leftFace)"/>
    <path d="M140,-50 L0,20 L0,160 L140,90 Z" fill="url(#rightFace)"/>
    <path d="M-108,-28 L-40,10 L-40,46 L-70,30 L-70,4 L-108,-16 Z" fill="#0d2d2a" opacity="0.85"/>
    <path d="M-70,30 L-40,46 L-40,70 Q-40,90 -60,82 L-80,72 L-70,64 L-52,74 Q-44,78 -50,70 L-50,46 L-70,30 Z" fill="#0d2d2a" opacity="0.85"/>
    <path d="M108,-28 L60,-1 Q38,14 38,44 Q38,74 60,88 L108,60 L108,76 L68,100 Q30,82 30,44 Q30,6 68,-14 L108,-36 Z" fill="#0d2d2a" opacity="0.85"/>
  </g>
</svg>
